# xmcd
#
# Track frame offsets: 
#        150
#        16861
#        28965
#        47049
#
# Disc length: 855 seconds
#
# Revision: 1
# Processed by: cddbd v1.5.2PL0 Copyright (c) Steve Scherf et al.
# Submitted via: ExactAudioCopy v0.99pb4
#
DISCID=2a035504
DTITLE=Various Artist - Victory Records New Music Sampler
DYEAR=2004
DGENRE=Punk
TTITLE0=Silverstein - Smashed Into Pieces
TTITLE1=The Black Maria - The Memento
TTITLE2=Straylight Run - Existentialism On Prom Night
TTITLE3=Spitalfield - Texas With A Dollar Sign
EXTD=
EXTT0=
EXTT1=
EXTT2=
EXTT3=
PLAYORDER=
